<svg width="16" height="16" viewBox="0 0 16 16" fill="none" xmlns="http://www.w3.org/2000/svg">
<path d="M2.6665 7.81714C2.6665 7.56401 2.85461 7.35481 3.09866 7.3217L3.1665 7.31714L13.1665 7.31714C13.4426 7.31714 13.6665 7.541 13.6665 7.81714C13.6665 8.07027 13.4784 8.27947 13.2344 8.31257L13.1665 8.31714H3.1665C2.89036 8.31714 2.6665 8.09328 2.6665 7.81714Z" fill="#3D3D3D"/>
<path d="M8.78051 4.15514C8.58483 3.9603 8.58415 3.64372 8.77899 3.44804C8.95612 3.27015 9.23386 3.25341 9.42991 3.39822L9.48609 3.44652L13.5194 7.46252C13.6978 7.64017 13.7141 7.91891 13.5681 8.11496L13.5195 8.17111L9.48612 12.1878C9.29046 12.3826 8.97387 12.382 8.77902 12.1863C8.60187 12.0084 8.58631 11.7306 8.73195 11.5352L8.78048 11.4792L12.4578 7.81663L8.78051 4.15514Z" fill="#3D3D3D"/>
</svg>
